<mxfile host="app.diagrams.net" modified="2024-07-08T07:29:41.104Z" agent="Mozilla/5.0 (Macintosh; Intel Mac OS X 10_15_7) AppleWebKit/537.36 (KHTML, like Gecko) Chrome/126.0.0.0 Safari/537.36" etag="FgvuSG8WgqySSQgZPCkr" version="24.6.4" type="device">
  <diagram name="Page-1" id="RGzqTn_725ssrmu9BVKn">
    <mxGraphModel dx="4162" dy="1178" grid="1" gridSize="10" guides="1" tooltips="1" connect="1" arrows="1" fold="1" page="1" pageScale="1" pageWidth="850" pageHeight="1100" math="0" shadow="0">
      <root>
        <mxCell id="0" />
        <mxCell id="1" parent="0" />
        <mxCell id="ULb54bMJZMgr6OYoCBU_-32" style="edgeStyle=orthogonalEdgeStyle;rounded=0;orthogonalLoop=1;jettySize=auto;html=1;entryX=0.5;entryY=0;entryDx=0;entryDy=0;" edge="1" parent="1" source="ULb54bMJZMgr6OYoCBU_-14" target="ULb54bMJZMgr6OYoCBU_-16">
          <mxGeometry relative="1" as="geometry" />
        </mxCell>
        <mxCell id="ULb54bMJZMgr6OYoCBU_-14" value="" style="rounded=0;whiteSpace=wrap;html=1;fillColor=#FFFFFF;" vertex="1" parent="1">
          <mxGeometry x="-1090" y="210" width="500" height="190" as="geometry" />
        </mxCell>
        <mxCell id="ULb54bMJZMgr6OYoCBU_-59" style="edgeStyle=orthogonalEdgeStyle;rounded=0;orthogonalLoop=1;jettySize=auto;html=1;entryX=0.5;entryY=0;entryDx=0;entryDy=0;" edge="1" parent="1" source="ULb54bMJZMgr6OYoCBU_-2" target="ULb54bMJZMgr6OYoCBU_-14">
          <mxGeometry relative="1" as="geometry" />
        </mxCell>
        <mxCell id="ULb54bMJZMgr6OYoCBU_-2" value="Energy consumption data" style="whiteSpace=wrap;html=1;shape=mxgraph.basic.document" vertex="1" parent="1">
          <mxGeometry x="-780" y="50" width="80" height="100" as="geometry" />
        </mxCell>
        <mxCell id="ULb54bMJZMgr6OYoCBU_-58" style="edgeStyle=orthogonalEdgeStyle;rounded=0;orthogonalLoop=1;jettySize=auto;html=1;entryX=0.5;entryY=0;entryDx=0;entryDy=0;" edge="1" parent="1" source="ULb54bMJZMgr6OYoCBU_-4" target="ULb54bMJZMgr6OYoCBU_-14">
          <mxGeometry relative="1" as="geometry" />
        </mxCell>
        <mxCell id="ULb54bMJZMgr6OYoCBU_-4" value="Weather data" style="whiteSpace=wrap;html=1;shape=mxgraph.basic.document" vertex="1" parent="1">
          <mxGeometry x="-980" y="50" width="80" height="100" as="geometry" />
        </mxCell>
        <mxCell id="ULb54bMJZMgr6OYoCBU_-23" style="edgeStyle=orthogonalEdgeStyle;rounded=0;orthogonalLoop=1;jettySize=auto;html=1;entryX=0;entryY=0.5;entryDx=0;entryDy=0;" edge="1" parent="1" source="ULb54bMJZMgr6OYoCBU_-5" target="ULb54bMJZMgr6OYoCBU_-6">
          <mxGeometry relative="1" as="geometry" />
        </mxCell>
        <mxCell id="ULb54bMJZMgr6OYoCBU_-5" value="Data Compilation" style="rounded=1;whiteSpace=wrap;html=1;fillColor=#99CCFF;" vertex="1" parent="1">
          <mxGeometry x="-1080" y="220" width="120" height="60" as="geometry" />
        </mxCell>
        <mxCell id="ULb54bMJZMgr6OYoCBU_-24" style="edgeStyle=orthogonalEdgeStyle;rounded=0;orthogonalLoop=1;jettySize=auto;html=1;" edge="1" parent="1" source="ULb54bMJZMgr6OYoCBU_-6" target="ULb54bMJZMgr6OYoCBU_-7">
          <mxGeometry relative="1" as="geometry" />
        </mxCell>
        <mxCell id="ULb54bMJZMgr6OYoCBU_-6" value="Data cleaning" style="rounded=1;whiteSpace=wrap;html=1;fillColor=#99CCFF;" vertex="1" parent="1">
          <mxGeometry x="-900" y="220" width="120" height="60" as="geometry" />
        </mxCell>
        <mxCell id="ULb54bMJZMgr6OYoCBU_-28" style="edgeStyle=orthogonalEdgeStyle;rounded=0;orthogonalLoop=1;jettySize=auto;html=1;" edge="1" parent="1" source="ULb54bMJZMgr6OYoCBU_-7" target="ULb54bMJZMgr6OYoCBU_-8">
          <mxGeometry relative="1" as="geometry">
            <Array as="points">
              <mxPoint x="-660" y="300" />
              <mxPoint x="-1020" y="300" />
            </Array>
          </mxGeometry>
        </mxCell>
        <mxCell id="ULb54bMJZMgr6OYoCBU_-7" value="Feature Engineering 1" style="rounded=1;whiteSpace=wrap;html=1;fillColor=#99CCFF;" vertex="1" parent="1">
          <mxGeometry x="-720" y="220" width="120" height="60" as="geometry" />
        </mxCell>
        <mxCell id="ULb54bMJZMgr6OYoCBU_-26" style="edgeStyle=orthogonalEdgeStyle;rounded=0;orthogonalLoop=1;jettySize=auto;html=1;entryX=0;entryY=0.5;entryDx=0;entryDy=0;" edge="1" parent="1" source="ULb54bMJZMgr6OYoCBU_-8" target="ULb54bMJZMgr6OYoCBU_-10">
          <mxGeometry relative="1" as="geometry" />
        </mxCell>
        <mxCell id="ULb54bMJZMgr6OYoCBU_-8" value="Data Aggregation" style="rounded=1;whiteSpace=wrap;html=1;fillColor=#99CCFF;" vertex="1" parent="1">
          <mxGeometry x="-1080" y="330" width="120" height="60" as="geometry" />
        </mxCell>
        <mxCell id="ULb54bMJZMgr6OYoCBU_-9" value="hourly to daily data conversion" style="shape=callout;whiteSpace=wrap;html=1;perimeter=calloutPerimeter;position2=1;fillColor=#7863FF;strokeColor=#FFFFFF;base=80;size=40;position=0.83;" vertex="1" parent="1">
          <mxGeometry x="-1260" y="390" width="120" height="90" as="geometry" />
        </mxCell>
        <mxCell id="ULb54bMJZMgr6OYoCBU_-27" style="edgeStyle=orthogonalEdgeStyle;rounded=0;orthogonalLoop=1;jettySize=auto;html=1;entryX=0;entryY=0.5;entryDx=0;entryDy=0;" edge="1" parent="1" source="ULb54bMJZMgr6OYoCBU_-10" target="ULb54bMJZMgr6OYoCBU_-13">
          <mxGeometry relative="1" as="geometry" />
        </mxCell>
        <mxCell id="ULb54bMJZMgr6OYoCBU_-10" value="Feature Engineering 2" style="rounded=1;whiteSpace=wrap;html=1;fillColor=#99CCFF;" vertex="1" parent="1">
          <mxGeometry x="-900" y="330" width="120" height="60" as="geometry" />
        </mxCell>
        <mxCell id="ULb54bMJZMgr6OYoCBU_-12" value="" style="endArrow=none;dashed=1;html=1;rounded=0;exitX=0;exitY=0;exitDx=120;exitDy=25;exitPerimeter=0;entryX=0;entryY=0.5;entryDx=0;entryDy=0;" edge="1" parent="1" source="ULb54bMJZMgr6OYoCBU_-9" target="ULb54bMJZMgr6OYoCBU_-8">
          <mxGeometry width="50" height="50" relative="1" as="geometry">
            <mxPoint x="-800" y="400" as="sourcePoint" />
            <mxPoint x="-930" y="355" as="targetPoint" />
          </mxGeometry>
        </mxCell>
        <mxCell id="ULb54bMJZMgr6OYoCBU_-13" value="Feature Selection" style="rounded=1;whiteSpace=wrap;html=1;fillColor=#99CCFF;" vertex="1" parent="1">
          <mxGeometry x="-720" y="330" width="120" height="60" as="geometry" />
        </mxCell>
        <mxCell id="ULb54bMJZMgr6OYoCBU_-16" value="Train-test Splitting" style="rounded=1;whiteSpace=wrap;html=1;fillColor=#99CCFF;" vertex="1" parent="1">
          <mxGeometry x="-900" y="440" width="120" height="60" as="geometry" />
        </mxCell>
        <mxCell id="ULb54bMJZMgr6OYoCBU_-53" style="edgeStyle=orthogonalEdgeStyle;rounded=0;orthogonalLoop=1;jettySize=auto;html=1;" edge="1" parent="1" source="ULb54bMJZMgr6OYoCBU_-18">
          <mxGeometry relative="1" as="geometry">
            <mxPoint x="-1080" y="670.0000000000002" as="targetPoint" />
          </mxGeometry>
        </mxCell>
        <mxCell id="ULb54bMJZMgr6OYoCBU_-18" value="Testing Data" style="shape=cylinder3;whiteSpace=wrap;html=1;boundedLbl=1;backgroundOutline=1;size=6.999999999999943;fillColor=#99FF99;" vertex="1" parent="1">
          <mxGeometry x="-1120" y="550" width="80" height="80" as="geometry" />
        </mxCell>
        <mxCell id="ULb54bMJZMgr6OYoCBU_-46" style="edgeStyle=orthogonalEdgeStyle;rounded=0;orthogonalLoop=1;jettySize=auto;html=1;entryX=0.5;entryY=0;entryDx=0;entryDy=0;" edge="1" parent="1" source="ULb54bMJZMgr6OYoCBU_-20" target="ULb54bMJZMgr6OYoCBU_-33">
          <mxGeometry relative="1" as="geometry" />
        </mxCell>
        <mxCell id="ULb54bMJZMgr6OYoCBU_-20" value="Training Data" style="shape=cylinder3;whiteSpace=wrap;html=1;boundedLbl=1;backgroundOutline=1;size=6.999999999999943;fillColor=#99FF99;" vertex="1" parent="1">
          <mxGeometry x="-640" y="550" width="80" height="80" as="geometry" />
        </mxCell>
        <mxCell id="ULb54bMJZMgr6OYoCBU_-30" style="edgeStyle=orthogonalEdgeStyle;rounded=0;orthogonalLoop=1;jettySize=auto;html=1;entryX=0.5;entryY=0;entryDx=0;entryDy=0;entryPerimeter=0;exitX=0.5;exitY=1;exitDx=0;exitDy=0;" edge="1" parent="1" source="ULb54bMJZMgr6OYoCBU_-16" target="ULb54bMJZMgr6OYoCBU_-18">
          <mxGeometry relative="1" as="geometry" />
        </mxCell>
        <mxCell id="ULb54bMJZMgr6OYoCBU_-31" style="edgeStyle=orthogonalEdgeStyle;rounded=0;orthogonalLoop=1;jettySize=auto;html=1;entryX=0.5;entryY=0;entryDx=0;entryDy=0;entryPerimeter=0;exitX=0.5;exitY=1;exitDx=0;exitDy=0;" edge="1" parent="1" source="ULb54bMJZMgr6OYoCBU_-16" target="ULb54bMJZMgr6OYoCBU_-20">
          <mxGeometry relative="1" as="geometry" />
        </mxCell>
        <mxCell id="ULb54bMJZMgr6OYoCBU_-33" value="" style="rounded=0;whiteSpace=wrap;html=1;" vertex="1" parent="1">
          <mxGeometry x="-760" y="670" width="320" height="500" as="geometry" />
        </mxCell>
        <mxCell id="ULb54bMJZMgr6OYoCBU_-42" style="edgeStyle=orthogonalEdgeStyle;rounded=0;orthogonalLoop=1;jettySize=auto;html=1;entryX=0.5;entryY=0;entryDx=0;entryDy=0;" edge="1" parent="1" source="ULb54bMJZMgr6OYoCBU_-34" target="ULb54bMJZMgr6OYoCBU_-35">
          <mxGeometry relative="1" as="geometry" />
        </mxCell>
        <mxCell id="ULb54bMJZMgr6OYoCBU_-34" value="Candidate Model Initiation" style="rounded=1;whiteSpace=wrap;html=1;fillColor=#99CCFF;" vertex="1" parent="1">
          <mxGeometry x="-660" y="690" width="120" height="60" as="geometry" />
        </mxCell>
        <mxCell id="ULb54bMJZMgr6OYoCBU_-43" style="edgeStyle=orthogonalEdgeStyle;rounded=0;orthogonalLoop=1;jettySize=auto;html=1;" edge="1" parent="1" source="ULb54bMJZMgr6OYoCBU_-35" target="ULb54bMJZMgr6OYoCBU_-36">
          <mxGeometry relative="1" as="geometry" />
        </mxCell>
        <mxCell id="ULb54bMJZMgr6OYoCBU_-35" value="Model Sampling" style="rounded=1;whiteSpace=wrap;html=1;fillColor=#99CCFF;" vertex="1" parent="1">
          <mxGeometry x="-660" y="780" width="120" height="60" as="geometry" />
        </mxCell>
        <mxCell id="ULb54bMJZMgr6OYoCBU_-44" style="edgeStyle=orthogonalEdgeStyle;rounded=0;orthogonalLoop=1;jettySize=auto;html=1;" edge="1" parent="1" source="ULb54bMJZMgr6OYoCBU_-36" target="ULb54bMJZMgr6OYoCBU_-38">
          <mxGeometry relative="1" as="geometry" />
        </mxCell>
        <mxCell id="ULb54bMJZMgr6OYoCBU_-36" value="Model Training" style="rounded=1;whiteSpace=wrap;html=1;fillColor=#99CCFF;" vertex="1" parent="1">
          <mxGeometry x="-660" y="870" width="120" height="60" as="geometry" />
        </mxCell>
        <mxCell id="ULb54bMJZMgr6OYoCBU_-45" style="edgeStyle=orthogonalEdgeStyle;rounded=0;orthogonalLoop=1;jettySize=auto;html=1;entryX=1;entryY=0.5;entryDx=0;entryDy=0;" edge="1" parent="1" source="ULb54bMJZMgr6OYoCBU_-38" target="ULb54bMJZMgr6OYoCBU_-35">
          <mxGeometry relative="1" as="geometry">
            <Array as="points">
              <mxPoint x="-480" y="995" />
              <mxPoint x="-480" y="810" />
            </Array>
          </mxGeometry>
        </mxCell>
        <mxCell id="ULb54bMJZMgr6OYoCBU_-49" style="edgeStyle=orthogonalEdgeStyle;rounded=0;orthogonalLoop=1;jettySize=auto;html=1;entryX=0.5;entryY=0;entryDx=0;entryDy=0;" edge="1" parent="1" source="ULb54bMJZMgr6OYoCBU_-38" target="ULb54bMJZMgr6OYoCBU_-48">
          <mxGeometry relative="1" as="geometry" />
        </mxCell>
        <mxCell id="ULb54bMJZMgr6OYoCBU_-38" value="Top Performing Models" style="shape=datastore;whiteSpace=wrap;html=1;fillColor=#FFCCFF;" vertex="1" parent="1">
          <mxGeometry x="-652.5" y="960" width="105" height="70" as="geometry" />
        </mxCell>
        <mxCell id="ULb54bMJZMgr6OYoCBU_-47" value="&amp;lt; 10 epochs" style="text;html=1;align=center;verticalAlign=middle;whiteSpace=wrap;rounded=0;" vertex="1" parent="1">
          <mxGeometry x="-540" y="1000" width="60" height="30" as="geometry" />
        </mxCell>
        <mxCell id="ULb54bMJZMgr6OYoCBU_-48" value="Best Model" style="shape=datastore;whiteSpace=wrap;html=1;fillColor=#FFCCFF;" vertex="1" parent="1">
          <mxGeometry x="-652.5" y="1070" width="105" height="70" as="geometry" />
        </mxCell>
        <mxCell id="ULb54bMJZMgr6OYoCBU_-51" value="10 epochs" style="text;html=1;align=center;verticalAlign=middle;whiteSpace=wrap;rounded=0;" vertex="1" parent="1">
          <mxGeometry x="-682" y="1035" width="90" height="30" as="geometry" />
        </mxCell>
        <mxCell id="ULb54bMJZMgr6OYoCBU_-54" value="Feyn QLattice Model" style="text;html=1;align=center;verticalAlign=middle;whiteSpace=wrap;rounded=0;" vertex="1" parent="1">
          <mxGeometry x="-558" y="638" width="115" height="30" as="geometry" />
        </mxCell>
        <mxCell id="ULb54bMJZMgr6OYoCBU_-57" style="edgeStyle=orthogonalEdgeStyle;rounded=0;orthogonalLoop=1;jettySize=auto;html=1;entryX=0.5;entryY=0;entryDx=0;entryDy=0;" edge="1" parent="1" source="ULb54bMJZMgr6OYoCBU_-55" target="ULb54bMJZMgr6OYoCBU_-56">
          <mxGeometry relative="1" as="geometry" />
        </mxCell>
        <mxCell id="ULb54bMJZMgr6OYoCBU_-55" value="Model" style="rhombus;whiteSpace=wrap;html=1;fillColor=#FFCCFF;" vertex="1" parent="1">
          <mxGeometry x="-1150" y="670" width="140" height="110" as="geometry" />
        </mxCell>
        <mxCell id="ULb54bMJZMgr6OYoCBU_-56" value="Predictions" style="rounded=1;whiteSpace=wrap;html=1;fillColor=#CCE5FF;" vertex="1" parent="1">
          <mxGeometry x="-1140" y="820" width="120" height="60" as="geometry" />
        </mxCell>
      </root>
    </mxGraphModel>
  </diagram>
</mxfile>
